<svg width="130" height="130" viewBox="0 0 130 130" fill="none" xmlns="http://www.w3.org/2000/svg"><rect width="130" height="130" rx="65" fill="#1F53FF"/><rect x="99.193" y="46.349" width="9" height="23" rx="2" transform="rotate(-4.08 99.193 46.35)" fill="#fff"/><path d="M104.447 50.402a1 1 0 0 1-.175.024q-.084.006-.164.008a3 3 0 0 0-.155.015.4.4 0 0 0-.133.05l-.083-.043a.5.5 0 0 0-.127-.039q-.061-.011-.092.01-.03.023-.038.02l-.029-.006a1 1 0 0 1-.115-.044 1 1 0 0 1-.117-.06.5.5 0 0 0-.116-.052l-.081-.01-.064.004a.1.1 0 0 1-.053-.012q-.008-.008-.014-.035a.5.5 0 0 0-.047-.153.3.3 0 0 0-.058-.08.4.4 0 0 0-.052-.117.3.3 0 0 1-.041-.121q-.027-.09-.061-.12-.03-.03-.031-.042a1 1 0 0 0-.021-.179.3.3 0 0 0-.018-.083l-.01-.04a.2.2 0 0 1-.008-.05l.132-.572.299-.306q.123-.009.207-.019.087-.006.151-.014l.128-.01.132-.005a.3.3 0 0 0 .075.047 2.2 2.2 0 0 0 .552.201l.061.016a.4.4 0 0 0 .11.028l.112.096q.003 0 .059.04.059.045.127.1.073.059.133.122.061.065.068.108l.034.194-.003.08-.002.029.002.027.002.028-.114.145a.2.2 0 0 0-.07.025q-.026.021-.038.083l-.011.069q-.004.005-.008 0 .004.075.051.157a.36.36 0 0 1 .056.16q.001.02-.017.046a.4.4 0 0 1-.045.051l-.048.052q-.026.025-.029.046a.3.3 0 0 0-.111.012.14.14 0 0 0-.046.04l-.016.044a.05.05 0 0 1-.03.035m-1.261-.584q.018.023.023.038.01.016.026.027.016.014.054.024a1 1 0 0 0 .122.027l.134.03q.057.013.094.018a1 1 0 0 0 .141.006 2 2 0 0 1 .152-.003.6.6 0 0 0 .182-.029 1 1 0 0 1 .15-.039q.084-.01.143-.022a.1.1 0 0 1 .072-.053.2.2 0 0 0 .096-.059.1.1 0 0 0 .02-.054.1.1 0 0 0-.003-.047l-.015-.04-.01-.023.001-.048a.3.3 0 0 0-.002-.084.3.3 0 0 0-.022-.09.13.13 0 0 0-.057-.069 2 2 0 0 0-.186-.131 4 4 0 0 0-.207-.086 1 1 0 0 1-.149-.061 1 1 0 0 1-.124-.06.45.45 0 0 0-.231-.031q-.012.004-.061-.008a1 1 0 0 0-.11-.024 2 2 0 0 0-.133-.01.24.24 0 0 0-.115.02.7.7 0 0 0-.289.27.3.3 0 0 1-.1.114q-.05.033-.049.052l.005.064q.007.043-.012.065zm-.224 3.94-.084-.219-.057-.288.066-.033.236.043.217.057.755-.034.173-.108-.008-.116-.149-.174-.003-.044q-.003-.045-.056-.052a.4.4 0 0 0-.112.008q-.015-.035-.123-.043l-.113-.008-.244.013-.324-.05-.158.04-.146-.025-.038-.034-.064-.44.077-.098.158.017.415.026q.073.012.165.017a2 2 0 0 0 .366.005q.087-.001.143-.01a.2.2 0 0 1 .072-.005.1.1 0 0 0 .048 0l.067-.08-.058-.245.062-.084q.05-.1-.075-.095l-.063-.04a.1.1 0 0 0-.065-.015.1.1 0 0 0-.022-.03.2.2 0 0 0-.05-.03.3.3 0 0 0-.094-.017 2 2 0 0 0-.196-.002.23.23 0 0 0-.111.028l-.071.005-.165-.056h-.285l-.277-.016-.039-.03-.074-.48.066-.084.154.013.209.009.304-.006a.5.5 0 0 1 .145.01q.07.015.154.025l.318.018q.03.025.104.052.075.031.143.026.02 0 .027-.01l.027-.014.084.054-.001.037.004.063.01.08q.006.039.017.075.03.142.073.175l.019.151-.153-.005a.16.16 0 0 0-.039.079q0 .044.019.087a.32.32 0 0 0 .158.141l.012.228.01.083a.6.6 0 0 1 .007.204q-.005.057-.024.066-.07.021-.051.072.006.008-.025.03a.1.1 0 0 0-.031.074.05.05 0 0 1-.026.034.1.1 0 0 1-.035.019l-.035.01q-.011.005-.011.017l.2.218.087.367-.248.359-.055.012-.048-.001a.05.05 0 0 1-.033-.01l-.359.026-.383.031-.448-.04zm-.07 1.104q0-.012-.007-.052l-.01-.079-.01-.084-.004-.055-.014-.087.043-.072a.7.7 0 0 1 .14-.002q.081.011.125.007.003.048.097.014a.35.35 0 0 1 .15-.035q.065 0 .129.01.069.012.088-.002l.05-.023.071-.025.263.029q.215-.015.331-.02h.172a.2.2 0 0 1 .069.011.1.1 0 0 0 .03.014q.012.008.04.005a1 1 0 0 0 .112-.008l.05.081q0 .068-.013.165a4 4 0 0 1-.022.194l-.01.085a.4.4 0 0 1-.007.065l-.072.061-.075-.095q-.018-.023-.068.001-.059.076-.031.127a.13.13 0 0 0 .081.07l.082.255.011.151-.019.07-.054.196-.044.168-.171.084h-.048q-.115.016-.223.028a2 2 0 0 1-.255.018l-.38.01-.156.012-.095.007-.032.01a.4.4 0 0 0-.057.036l-.046-.025-.042-.073a1 1 0 0 0-.03-.142 1 1 0 0 1-.026-.139.06.06 0 0 1 .013-.04q.02-.018.011-.073l.044-.06a.32.32 0 0 0 .19-.037.1.1 0 0 1 .039-.011 3 3 0 0 1 .411.027q.044.005.113 0l.139-.01.136-.01a1 1 0 0 1 .096-.003l.195-.13.015-.07a.1.1 0 0 0-.008-.063 1 1 0 0 0-.068-.103.1.1 0 0 1-.019-.043q-.012 0 .017-.045a1 1 0 0 1 .063-.073q.05-.072.013-.101a.3.3 0 0 0-.092-.042.2.2 0 0 0-.059.016.1.1 0 0 0-.022.026.05.05 0 0 0 .002.028q-.017-.02-.062-.028a1 1 0 0 0-.093-.013q-.048 0-.104.003a1 1 0 0 0-.095.02.6.6 0 0 1-.168 0 1.5 1.5 0 0 0-.276.01q-.06.005-.128.006l-.128.001-.189.002h-.012a.3.3 0 0 1-.087-.15m2.643 1.917a.3.3 0 0 0 .061.004l.064.004.048-.004.036.002.046.016a.1.1 0 0 1 .006.032q.001.02.007.048.01.082.028.106.004 0 .017.019l.018.019-.002.028-.012.065a1 1 0 0 0-.009.097q.003.036.007.04.004.003.002.023l-.066.04-.201.051-.145-.074-.009-.007q-.003 0-.008-.007a.3.3 0 0 0-.04-.046l-.012-.01-.021-.12.012-.057.023-.077.022-.078a.4.4 0 0 0 .02-.058l.019-.021zm-.651.544-.144-.006-.059.02-.066-.019-.091.019-.077-.015-.023.014-.181-.003-.38.01a.4.4 0 0 1-.072-.002.8.8 0 0 0-.181 0 .2.2 0 0 0-.074.03l-.14-.002a2 2 0 0 1-.186-.015 1 1 0 0 1-.084-.062q-.035-.03-.045-.121l-.015-.103a1 1 0 0 0-.019-.091l-.011-.047-.016-.051.121-.11q.02.004.108.005.093.005.217.005.124-.001.264-.011a2 2 0 0 0 .259-.027l.077.019.178.023.141.002.049.02.037.002.109.017.221.004.165.349zm-1.08 2.113.095-.188.143-.078.248-.278.058-.033.181-.16.07-.03-.028-.006a.4.4 0 0 0-.072.001q-.055.007-.081-.014a1 1 0 0 0-.127-.039l-.141-.002-.011.009q-.004.008-.019.013a.3.3 0 0 1-.052.008 1 1 0 0 1-.097-.005 1 1 0 0 0-.193-.007 1 1 0 0 1-.134.022.4.4 0 0 1-.125 0 1 1 0 0 0-.244.01l-.027-.042a.2.2 0 0 0 .001-.048l-.009-.072-.01-.075-.004-.068-.004-.052-.052-.165.048-.107a1 1 0 0 1 .145.005q.081.007.141.01a1 1 0 0 0 .093.002l.035-.01.043-.016.604-.015q.002.012.03.014a.4.4 0 0 0 .159-.02q.003-.003.032.002l.062.024.061.024.021.01.013.011q.025.007.04.002l.035-.015.056-.012a.5.5 0 0 1 .104-.003 9 9 0 0 0 .341.011l.092-.006a.3.3 0 0 1 .067-.013q.036.001.054-.036h.052q.038.015.045.121l.015.212q.001.024.028.058a.2.2 0 0 1 .034.086l.024.046q.018.027.018.04a.1.1 0 0 1-.005.04.2.2 0 0 1-.028.058l-.083.006-.412.246-.331.087-.209.152-.271.147-.011.061.129.123.045.013a3 3 0 0 1 .138.074q.05.033.109.077.222.177.296.147l.291.152q-.023.07.02.11.047.045.2.055l.024-.006a.1.1 0 0 0 .035-.014q.028.05.052.056a.3.3 0 0 0 .073.003.3.3 0 0 1 .029.082l.026.082-.144.283-.076-.002-.085-.006-.121-.008-.121-.007q-.056 0-.104-.005l-.076-.002a1 1 0 0 0-.141-.006l-.265-.002q-.332.012-.377.112l-.124.005a14 14 0 0 1-.432.022l-.119.009-.124.009a4 4 0 0 1-.068-.224 1 1 0 0 1-.037-.182.095.095 0 0 1 .077-.098l.026.026q0 .004.019-.017l.471-.033.066.023-.002-.028.183-.013q.044-.003.12-.013l.19-.025a5 5 0 0 1 .246-.038.2.2 0 0 1 .053.016l.075.04a.1.1 0 0 0 .041 0 .2.2 0 0 1 .04.002q.015-.002.029.013.017.02.026.027l.05-.024.036-.01q.073-.198-.14-.107l-.206-.077-.427-.247-.492-.213zm-.095 3.727-.108-.554.179-.129q.052-.003-.009-.08a.14.14 0 0 0-.043-.036l-.059-.036-.033-.022-.038-.021a.7.7 0 0 1-.138-.247.27.27 0 0 1 .02-.222q.004-.069.026-.094l.025-.034-.002-.257.044-.111.245-.118.085.014.345-.113.291.148.133.127a.7.7 0 0 1 .077.171 1.4 1.4 0 0 1 .063.388.5.5 0 0 1-.013.154q-.063.004-.081.046a1 1 0 0 0-.032.158.3.3 0 0 0 .166.029.7.7 0 0 0 .205-.051l.199-.079a2 2 0 0 1 .077-.214l-.04-.17-.049-.172.061-.044.107.036.066.023.016.055.045.182-.044.167.04.178-.078.354-.213.164-.631.097-.2.002-.461.121-.02.054.009.123-.136.062zm.546-1.51a.4.4 0 0 0-.176.012.3.3 0 0 0-.114.084l-.119.069a1 1 0 0 0-.027.138.4.4 0 0 0 .006.132.6.6 0 0 0 .054.145q.042.077.117.176l.204-.007.35-.097a.3.3 0 0 0-.001-.18 1 1 0 0 1-.028-.11 3 3 0 0 0-.062-.249.15.15 0 0 0-.041-.073zm1.15 3.192-.184.013-.007-.104-.131-.143a1.4 1.4 0 0 0-.102-.313q-.057-.12-.144-.106a.1.1 0 0 0-.049-.005q-.023.001-.021.03l-.405-.052-.047-.032-.442.031-.226-.008-.085-.074-.001-.457.129-.11.074.023.218-.031.406.019.299.019q.011 0 .02.002l.02-.001.02.002q.018.02.073.02a.3.3 0 0 0 .073-.002.7.7 0 0 0 .154-.031.14.14 0 0 0 .054-.032.4.4 0 0 0 .06-.048l.128.043.005.076.105.405-.041.103a.4.4 0 0 0-.116.005.2.2 0 0 0-.065.036.1.1 0 0 0-.028.054.07.07 0 0 0 .011.048l.045.069q.009.02.045.009a.4.4 0 0 1 .092-.003l.123.489zm-.31.318a.5.5 0 0 1 .114-.032l.126-.026.149.066q.018.07.015.1a.2.2 0 0 1-.008.048l.013.067.034.142q.068.003.153.017t.19.015l.052-.06.059-.008.107.036.034.479.005.18a.1.1 0 0 1-.074.03.4.4 0 0 1-.138-.03q-.021-.008-.012.004l-.247.018a.13.13 0 0 0-.051-.033.3.3 0 0 0-.057-.016l-.008.009.025.23-.006.025-.006.029a.5.5 0 0 0-.004.124l-.037.039-.194-.03a2 2 0 0 0-.031-.146l-.013-.076a.2.2 0 0 1-.007-.043l-.06-.165-.078-.018h-.056l-.056.004-.071.009-.509.008a.5.5 0 0 0-.124.001 1 1 0 0 0-.095.027l-.038.019-.039.019-.101.043-.019.017.147.379.047.145-.074.093-.134-.087-.055-.088-.022-.079-.236-.444a.1.1 0 0 1 .002-.032l-.003-.048.004-.056a.7.7 0 0 0-.024-.215q.112-.007.146-.099a3 3 0 0 0 .069-.145l.092-.007a.2.2 0 0 0 .063-.012.3.3 0 0 1 .088-.01l.18-.005a.6.6 0 0 0 .179-.021q.07-.021.068-.053.053 0 .104-.004l.137.003.044-.003.025.01.016.007q.008.003.023.034.018.035.088.058.07.087.121.072t.062-.145a.1.1 0 0 0-.019-.047q-.009-.015-.045-.013l-.069-.235z" fill="#000"/><path d="M59 89.5a6.5 6.5 0 1 1-13 0 6.5 6.5 0 0 1 13 0m-9.75 0a3.25 3.25 0 1 0 6.5 0 3.25 3.25 0 0 0-6.5 0m34.75 0a6.5 6.5 0 1 1-13 0 6.5 6.5 0 0 1 13 0m-9.75 0a3.25 3.25 0 1 0 6.5 0 3.25 3.25 0 0 0-6.5 0" fill="#fff"/><rect x="104.717" y="40" width="1" height="7" rx=".5" transform="rotate(14.2 104.717 40)" fill="#DE0000"/><path d="M81.832 46.706h-42.33c-3.846 0-6.699 3.566-5.854 7.318l4.345 19.294A6 6 0 0 0 43.846 78h39.54a6 6 0 0 0 5.9-4.906l5.227-28.188A6 6 0 0 1 100.412 40H107" stroke="#fff" stroke-width="4" stroke-linecap="round"/></svg>